<svg xmlns="http://www.w3.org/2000/svg" width="216" height="32" viewBox="0 0 216 32" fill="none">
  <path d="M63.0018 27.8718L51.4365 7.77231L59.745 3L74.1264 27.8718H63.0018Z" fill="#858FAD"/>
  <path d="M32.1973 25.0555L40.5058 20.251L44.9019 27.8716H33.8095L32.1973 25.0555Z" fill="#858FAD"/>
  <path d="M41.9355 16.5213L50.2441 11.7275L59.5629 27.8717H50.8675L48.5028 27.8609L41.9355 16.5213Z" fill="#858FAD"/>
  <path d="M118.329 27.6902H122.878V9.28613H118.329V27.6902Z" fill="#858FAD"/>
  <path d="M175.338 28.125C170.251 28.125 167.191 25.4988 167.025 21.7973H171.823C171.823 22.9553 172.547 24.651 175.648 24.713C177.716 24.713 178.688 23.493 178.688 22.5831C178.564 21.1356 176.744 21.0115 174.801 20.7013C172.857 20.3912 171.203 20.0396 170.003 19.4193C168.473 18.6335 167.439 16.9378 167.439 14.994C167.439 11.7061 170.293 9.10059 175.049 9.10059C179.66 9.10059 182.576 11.52 182.886 15.1181H178.254C178.213 14.1462 178.026 12.616 175.297 12.616C173.456 12.616 172.236 12.9882 172.133 14.2703C172.133 16.152 175.959 16.028 178.936 16.8137C181.79 17.5375 183.61 19.3159 183.61 21.7973C183.61 26.3673 179.908 28.125 175.338 28.125Z" fill="#858FAD"/>
  <path d="M118.329 3L122.878 3.02102V7.57033H118.329V3Z" fill="#858FAD"/>
  <path d="M106.106 28.1245C100.812 28.1245 96.5107 23.8026 96.5107 18.5709C96.5107 13.2772 100.812 9.10007 106.106 9.10007C108.112 9.10007 109.931 9.6377 111.524 10.7337V3.02051H116.073V27.6902H111.524V26.4702C109.931 27.5041 108.112 28.1245 106.106 28.1245ZM100.874 18.5709C100.874 21.4246 103.314 23.8026 106.23 23.8026C109.083 23.8026 111.524 21.4246 111.524 18.5709C111.524 15.7173 109.083 13.2772 106.23 13.2772C103.314 13.2772 100.874 15.7173 100.874 18.5709Z" fill="#858FAD"/>
  <path d="M139.731 3.02051H144.218V27.6902H139.731V26.4702C138.2 27.5041 136.319 28.1245 134.251 28.1245C129.019 28.1245 124.718 23.8026 124.718 18.5709C124.718 13.2772 129.019 9.10007 134.251 9.10007C136.319 9.10007 138.138 9.6377 139.731 10.7337V3.02051ZM129.143 18.5709C129.143 21.4246 131.583 23.8026 134.375 23.8026C137.29 23.8026 139.731 21.4246 139.731 18.5709C139.731 15.7173 137.29 13.2772 134.375 13.2772C131.583 13.2772 129.143 15.7173 129.143 18.5709Z" fill="#858FAD"/>
  <path d="M155.28 28.125C150.069 28.125 145.747 23.8031 145.747 18.5714C145.747 13.2777 150.069 9.10059 155.28 9.10059C157.286 9.10059 159.168 9.63822 160.698 10.7342V9.26602H165.247V27.6908H160.698V26.4707C159.168 27.5047 157.348 28.125 155.28 28.125ZM150.172 18.5714C150.172 21.4251 152.612 23.8032 155.466 23.8032C158.32 23.8032 160.698 21.4251 160.698 18.5714C160.698 15.7178 158.32 13.2777 155.466 13.2777C152.612 13.2777 150.172 15.7178 150.172 18.5714Z" fill="#858FAD"/>
  <path d="M79.7823 18.5714C79.7823 21.4251 82.2224 23.8032 85.0761 23.8032C87.9918 23.8032 90.4319 21.4251 90.4319 18.5714C90.4319 15.7178 87.9918 13.2777 85.0761 13.2777C82.2224 13.2777 79.7823 15.7178 79.7823 18.5714ZM84.952 28.125C79.7203 28.125 75.3984 23.8031 75.3984 18.5714C75.3984 13.2777 79.7203 9.10059 84.952 9.10059C86.9579 9.10059 88.8396 9.63822 90.4319 10.7342V9.26602H94.9192V27.6908H90.4319V26.4707C88.9017 27.5047 87.0199 28.125 84.952 28.125Z" fill="#858FAD"/>
</svg>