<svg xmlns="http://www.w3.org/2000/svg" width="124" height="32" viewBox="0 0 124 32" fill="none">
  <g clip-path="url(#clip0_9812_27912)">
    <path d="M14.0513 0H0.5V32L14.0513 0Z" fill="#858FAD"/>
    <path d="M23.585 0H37.1186V32L23.585 0Z" fill="#858FAD"/>
    <path d="M18.8182 11.7949L27.4434 32.0009H21.7845L19.2067 25.5677H12.8945L18.8182 11.7949Z" fill="#858FAD"/>
    <path d="M59.227 20.3504L60.8249 24.8745C60.8779 24.9878 60.9573 25.0401 61.0986 25.0401H64.1708C64.3385 25.0401 64.365 24.9617 64.3385 24.7961L57.991 7.38828C57.9646 7.24881 57.9381 7.22266 57.7968 7.22266H53.983C53.8771 7.22266 53.8153 7.30111 53.8153 7.41443C53.7623 8.32971 53.6829 8.60866 53.5681 8.87888L47.9093 24.7699C47.8828 24.9617 47.9446 25.0401 48.1035 25.0401H50.849C51.0168 25.0401 51.0962 24.9878 51.158 24.8222L52.6676 20.3504H59.227ZM53.5416 17.3954C54.3715 14.9197 55.4662 11.7468 55.9076 9.93363H55.9341C56.4814 11.8339 57.7703 15.5997 58.353 17.3954H53.5416Z" fill="#858FAD"/>
    <path d="M72.4979 25.3107C74.1488 25.3107 75.9056 25.0144 77.6889 24.256C77.8301 24.2037 77.8566 24.1427 77.8566 24.0119C77.8037 23.5238 77.7419 22.8177 77.7419 22.2772V5.88933C77.7419 5.78472 77.7419 5.73242 77.6095 5.73242H74.6167C74.5019 5.73242 74.449 5.78472 74.449 5.9242V11.4769C73.9811 11.4246 73.6544 11.3985 73.266 11.3985C68.437 11.3985 65.4707 14.5453 65.4707 18.4766C65.4707 23.0356 68.5164 25.3107 72.4979 25.3107ZM74.449 22.2772C73.9546 22.4341 73.4072 22.4952 72.8511 22.4952C70.6617 22.4952 68.8696 21.2748 68.8696 18.311C68.8696 15.6872 70.7146 14.1356 73.16 14.1356C73.6544 14.1356 74.087 14.1879 74.449 14.3274V22.2772Z" fill="#858FAD"/>
    <path d="M87.4046 11.3984C83.2818 11.3984 80.7305 14.5191 80.7305 18.372C80.7305 21.8152 82.761 25.3107 87.3428 25.3107C91.2183 25.3107 93.9374 22.4951 93.9374 18.2848C93.9374 14.5714 91.6333 11.3984 87.4046 11.3984ZM87.2368 14.1356C89.5675 14.1356 90.5562 16.1143 90.5562 18.372C90.5562 21.1614 89.0996 22.5474 87.4046 22.5474C85.3123 22.5474 84.0763 20.8128 84.0763 18.311C84.0763 15.7395 85.3917 14.1356 87.2368 14.1356Z" fill="#858FAD"/>
    <path d="M97.0321 5.73242C96.9173 5.73242 96.8379 5.78472 96.8379 5.9242V24.4739C96.8379 24.5524 96.9173 24.6918 97.0321 24.718C98.3475 25.119 99.7247 25.3107 101.146 25.3107C105.216 25.3107 109.171 22.8177 109.171 17.7967C109.171 14.1617 106.646 11.3985 102.691 11.3985C101.782 11.3985 100.934 11.5379 100.193 11.782L100.157 5.95035C100.157 5.75857 100.104 5.73242 99.9101 5.73242H97.0321ZM105.79 18.128C105.79 21.1353 103.706 22.5475 101.455 22.5475C100.987 22.5475 100.572 22.5213 100.193 22.408V14.493C100.625 14.3274 101.146 14.1879 102.108 14.1879C104.28 14.1879 105.79 15.5477 105.79 18.128Z" fill="#858FAD"/>
    <path d="M120.339 19.1042C121.681 19.1042 122.785 19.0781 123.164 18.9909C123.306 18.9648 123.359 18.9125 123.385 18.7991C123.465 18.5028 123.5 17.8839 123.5 17.1255C123.5 14.5453 121.928 11.3984 117.867 11.3984C113.718 11.3984 111.414 14.737 111.414 18.5028C111.414 21.8414 113.197 25.3107 118.194 25.3107C120.066 25.3107 121.275 25.0143 122.317 24.5262C122.423 24.4739 122.476 24.3867 122.476 24.2298V21.9721C122.476 21.8414 122.396 21.8152 122.317 21.8675C121.275 22.3034 120.145 22.5213 118.909 22.5213C116.111 22.5213 114.839 20.9958 114.76 19.1042H120.339ZM114.76 16.7681C114.981 15.4431 115.828 14.0048 117.726 14.0048C119.818 14.0048 120.366 15.7395 120.366 16.524C120.366 16.5502 120.366 16.6635 120.366 16.7419C120.251 16.7681 119.898 16.7681 118.856 16.7681H114.76Z" fill="#858FAD"/>
  </g>
  <defs>
    <clipPath id="clip0_9812_27912">
      <rect width="123" height="32" fill="white" transform="translate(0.5)"/>
    </clipPath>
  </defs>
</svg>