<svg xmlns="http://www.w3.org/2000/svg" width="102" height="30" viewBox="0 0 102 30" fill="none">
  <g clip-path="url(#clip0_9812_27945)">
    <path d="M63.2643 23.4366C57.344 27.689 48.7629 29.9577 41.3747 29.9577C31.0152 29.9577 21.6891 26.224 14.6335 20.014C14.0792 19.5257 14.5758 18.8602 15.241 19.2405C22.8554 23.5576 32.2703 26.1548 41.9955 26.1548C48.5544 26.1548 55.7697 24.8325 62.404 22.0883C63.4062 21.6735 64.2444 22.7279 63.2643 23.4366Z" fill="#858FAD"/>
    <path d="M65.7254 20.6931C64.9715 19.751 60.7231 20.248 58.8162 20.4683C58.2352 20.5375 58.1465 20.0448 58.6698 19.6905C62.0535 17.3699 67.6057 18.0397 68.2532 18.8175C68.9006 19.5997 68.0847 25.0232 64.905 27.6117C64.4172 28.0093 63.9515 27.7975 64.1688 27.2703C64.8828 25.5331 66.4837 21.6395 65.7254 20.6931Z" fill="#858FAD"/>
    <path d="M58.9502 3.30768V1.05188C58.9502 0.710482 59.2162 0.481445 59.5355 0.481445H69.8994C70.232 0.481445 70.4981 0.714804 70.4981 1.05188V2.98357C70.4937 3.30768 70.2143 3.73118 69.7176 4.40101L64.3472 11.8728C66.3428 11.8253 68.4493 12.1148 70.2586 13.1087C70.6666 13.3335 70.7775 13.6619 70.8085 13.986V16.3931C70.8085 16.7215 70.436 17.1061 70.0458 16.9073C66.8572 15.2781 62.6221 15.1009 59.0965 16.9246C58.7373 17.1147 58.3604 16.7344 58.3604 16.406V14.12C58.3604 13.7526 58.3648 13.126 58.7417 12.5686L64.9636 3.87379H59.5488C59.2162 3.87379 58.9502 3.64475 58.9502 3.30768Z" fill="#858FAD"/>
    <path d="M21.144 17.3822H17.9909C17.6894 17.3606 17.4499 17.1402 17.4277 16.8593V1.09027C17.4277 0.774806 17.6983 0.524159 18.0353 0.524159H20.9755C21.2815 0.537115 21.5254 0.76616 21.5476 1.05138V3.11271H21.6052C22.3724 1.12052 23.8137 0.191406 25.7561 0.191406C27.7295 0.191406 28.9624 1.12052 29.8493 3.11271C30.6121 1.12052 32.346 0.191406 34.2042 0.191406C35.5257 0.191406 36.9714 0.722945 37.8539 1.91567C38.8517 3.24236 38.6477 5.16973 38.6477 6.85942L38.6433 16.8117C38.6433 17.1272 38.3728 17.3822 38.0357 17.3822H34.8871C34.5723 17.3606 34.3195 17.1142 34.3195 16.8117V8.45403C34.3195 7.78853 34.3816 6.12909 34.2308 5.49816C33.9957 4.4394 33.2906 4.14122 32.3771 4.14122C31.6143 4.14122 30.8161 4.63819 30.4923 5.43334C30.1686 6.22848 30.1996 7.55949 30.1996 8.45403V16.8117C30.1996 17.1272 29.9291 17.3822 29.5921 17.3822H26.4435C26.1242 17.3606 25.8758 17.1142 25.8758 16.8117L25.8714 8.45403C25.8714 6.6952 26.1685 4.10665 23.929 4.10665C21.6629 4.10665 21.7516 6.63038 21.7516 8.45403V16.8117C21.7516 17.1272 21.481 17.3822 21.144 17.3822Z" fill="#858FAD"/>
    <path d="M79.4207 0.191406C84.0993 0.191406 86.6315 4.10665 86.6315 9.08497C86.6315 13.8947 83.8332 17.7106 79.4207 17.7106C74.8264 17.7106 72.3252 13.7954 72.3252 8.91643C72.3252 4.00725 74.8574 0.191406 79.4207 0.191406ZM79.4473 3.41089C77.1235 3.41089 76.9772 6.49641 76.9772 8.41946C76.9772 10.3468 76.9461 14.4609 79.4207 14.4609C81.8642 14.4609 81.9795 11.142 81.9795 9.11954C81.9795 7.78853 81.9219 6.19823 81.5094 4.93637C81.1547 3.83872 80.4496 3.41089 79.4473 3.41089Z" fill="#858FAD"/>
    <path d="M92.6972 17.3822H89.5574C89.2426 17.3606 88.9898 17.1142 88.9898 16.8117L88.9854 1.03841C89.012 0.748874 89.2736 0.524159 89.5929 0.524159H92.5154C92.7903 0.537115 93.0165 0.718625 93.0786 0.964948V3.37632H93.1362C94.0187 1.21991 95.256 0.191406 97.4334 0.191406C98.8481 0.191406 100.227 0.688374 101.114 2.04963C101.939 3.3115 101.939 5.43334 101.939 6.95881V16.8852C101.904 17.1618 101.642 17.3822 101.332 17.3822H98.1696C97.8813 17.3606 97.6419 17.1531 97.6108 16.8852V8.32007C97.6108 6.59581 97.8148 4.07207 95.6374 4.07207C94.8702 4.07207 94.1651 4.57337 93.8147 5.33394C93.3713 6.29763 93.3136 7.25699 93.3136 8.32007V16.8117C93.3092 17.1272 93.0342 17.3822 92.6972 17.3822Z" fill="#858FAD"/>
    <path d="M50.6881 9.85073V9.18522C48.4087 9.18522 46.0007 9.66058 46.0007 12.2794C46.0007 13.6061 46.7058 14.5049 47.9165 14.5049C48.8034 14.5049 49.5972 13.9734 50.0983 13.1091C50.7192 12.046 50.6881 11.0478 50.6881 9.85073ZM53.8678 17.3398C53.6594 17.5213 53.3578 17.5343 53.1228 17.4133C52.0762 16.5663 51.8899 16.173 51.3134 15.3649C49.5839 17.0848 48.3599 17.5991 46.116 17.5991C43.464 17.5991 41.3975 16.0045 41.3975 12.8109C41.3975 10.3174 42.7855 8.61911 44.759 7.78939C46.4707 7.05474 48.861 6.9251 50.6881 6.72199V6.32442C50.6881 5.59409 50.7458 4.7298 50.3068 4.09887C49.9209 3.53275 49.1848 3.29939 48.5373 3.29939C47.3355 3.29939 46.2623 3.90008 46.0007 5.14466C45.9475 5.42123 45.739 5.69348 45.4552 5.70645L42.3953 5.38666C42.1381 5.33048 41.8542 5.12737 41.9252 4.74276C42.6303 1.13003 45.9785 0.0410156 48.9763 0.0410156C50.5107 0.0410156 52.5152 0.43859 53.7259 1.57081C55.2603 2.96664 55.114 4.82919 55.114 6.85596V11.6441C55.114 13.0832 55.7259 13.7141 56.3025 14.492C56.5064 14.7685 56.5508 15.1013 56.2936 15.3087C55.6506 15.8316 54.5064 16.804 53.8767 17.3485L53.8678 17.3398Z" fill="#858FAD"/>
    <path d="M9.3522 9.85073V9.18522C7.07277 9.18522 4.66473 9.66058 4.66473 12.2794C4.66473 13.6061 5.36985 14.5049 6.58052 14.5049C7.46745 14.5049 8.26126 13.9734 8.76239 13.1091C9.38324 12.046 9.3522 11.0478 9.3522 9.85073ZM12.5319 17.3398C12.3234 17.5213 12.0219 17.5343 11.7868 17.4133C10.7403 16.5663 10.554 16.173 9.97749 15.3649C8.24796 17.0848 7.02399 17.5991 4.78003 17.5991C2.12809 17.5991 0.0615234 16.0045 0.0615234 12.8109C0.0615234 10.3174 1.44958 8.61911 3.42302 7.78939C5.13481 7.05474 7.5251 6.9251 9.3522 6.72199V6.32442C9.3522 5.59409 9.40985 4.7298 8.97082 4.09887C8.585 3.53275 7.84884 3.29939 7.20137 3.29939C5.99957 3.29939 4.92638 3.90008 4.66473 5.14466C4.61151 5.42123 4.40308 5.69348 4.11926 5.70645L1.05933 5.38666C0.802116 5.33048 0.518296 5.12737 0.589251 4.74276C1.29437 1.13003 4.64256 0.0410156 7.64041 0.0410156C9.17481 0.0410156 11.1793 0.43859 12.39 1.57081C13.9244 2.96664 13.778 4.82919 13.778 6.85596V11.6441C13.778 13.0832 14.39 13.7141 14.9665 14.492C15.1705 14.7685 15.2149 15.1013 14.9576 15.3087C14.3146 15.8316 13.1705 16.804 12.5407 17.3485L12.5319 17.3398Z" fill="#858FAD"/>
  </g>
  <defs>
    <clipPath id="clip0_9812_27945">
      <rect width="102" height="30" fill="white"/>
    </clipPath>
  </defs>
</svg>