<svg xmlns="http://www.w3.org/2000/svg" width="20" height="20" viewBox="0 0 20 20" fill="none">
  <mask id="mask0_11303_20042" style="mask-type:luminance" maskUnits="userSpaceOnUse" x="0" y="0" width="20" height="20">
    <path d="M20 0H0V20H20V0Z" fill="white"/>
  </mask>
  <g mask="url(#mask0_11303_20042)">
    <path fill-rule="evenodd" clip-rule="evenodd" d="M10 0C4.475 0 0 4.47349 0 9.99661C0 14.4201 2.8625 18.1564 6.8375 19.4809C7.3375 19.5684 7.525 19.2685 7.525 19.0061C7.525 18.7686 7.5125 17.9814 7.5125 17.1443C5 17.6065 4.35 16.5319 4.15 15.9696C4.0375 15.6823 3.55 14.795 3.125 14.5576C2.775 14.3701 2.275 13.9078 3.1125 13.8953C3.9 13.8828 4.4625 14.62 4.65 14.92C5.55 16.4319 6.9875 16.0071 7.5625 15.7446C7.65 15.0949 7.9125 14.6575 8.2 14.4076C5.975 14.1578 3.65 13.2955 3.65 9.47179C3.65 8.38466 4.0375 7.48496 4.675 6.7852C4.575 6.53529 4.225 5.51064 4.775 4.1361C4.775 4.1361 5.6125 3.87369 7.525 5.16075C8.325 4.93583 9.175 4.82336 10.025 4.82336C10.875 4.82336 11.725 4.93583 12.525 5.16075C14.4375 3.86119 15.275 4.1361 15.275 4.1361C15.825 5.51064 15.475 6.53529 15.375 6.7852C16.0125 7.48496 16.4 8.37216 16.4 9.47179C16.4 13.308 14.0625 14.1578 11.8375 14.4076C12.2 14.72 12.5125 15.3198 12.5125 16.257C12.5125 17.594 12.5 18.6686 12.5 19.0061C12.5 19.2685 12.6875 19.5809 13.1875 19.4809C15.1726 18.811 16.8978 17.5355 18.1198 15.8341C19.3419 14.1328 19.9995 12.0912 20 9.99661C20 4.47349 15.525 0 10 0Z" fill="#C2CDE7"/>
  </g>
</svg>