<svg xmlns="http://www.w3.org/2000/svg" width="20" height="20" viewBox="0 0 20 20" fill="none">
  <path d="M10 5C8.67392 5 7.40215 5.52678 6.46447 6.46447C5.52678 7.40215 5 8.67392 5 10C5 11.3261 5.52678 12.5979 6.46447 13.5355C7.40215 14.4732 8.67392 15 10 15C11.3261 15 12.5979 14.4732 13.5355 13.5355C14.4732 12.5979 15 11.3261 15 10C15 8.67392 14.4732 7.40215 13.5355 6.46447C12.5979 5.52678 11.3261 5 10 5ZM10 13.2472C9.1385 13.2472 8.3123 12.905 7.70313 12.2958C7.09396 11.6866 6.75173 10.8604 6.75173 9.99892C6.75173 9.13742 7.09396 8.31121 7.70313 7.70205C8.3123 7.09288 9.1385 6.75065 10 6.75065C10.8615 6.75065 11.6877 7.09288 12.2969 7.70205C12.906 8.31121 13.2483 9.13742 13.2483 9.99892C13.2483 10.8604 12.906 11.6866 12.2969 12.2958C11.6877 12.905 10.8615 13.2472 10 13.2472Z" fill="#C2CDE7"/>
  <path d="M15 6.25C15.6904 6.25 16.25 5.69036 16.25 5C16.25 4.30964 15.6904 3.75 15 3.75C14.3096 3.75 13.75 4.30964 13.75 5C13.75 5.69036 14.3096 6.25 15 6.25Z" fill="#C2CDE7"/>
  <path d="M18.2865 4.2637C18.0615 3.68364 17.7177 3.15688 17.2771 2.71712C16.8365 2.27737 16.3088 1.93431 15.7277 1.70991C15.0478 1.45508 14.3295 1.31728 13.6034 1.3024C12.6676 1.26164 12.3712 1.25 9.99806 1.25C7.62494 1.25 7.32077 1.25 6.39271 1.3024C5.66717 1.31652 4.94937 1.45434 4.27032 1.70991C3.68913 1.93405 3.16128 2.27701 2.72064 2.7168C2.28 3.15659 1.93631 3.68349 1.7116 4.2637C1.45632 4.94252 1.31862 5.65977 1.30442 6.38473C1.26263 7.31814 1.25 7.61408 1.25 9.98448C1.25 12.3539 1.25 12.6557 1.30442 13.5842C1.319 14.31 1.45602 15.0261 1.7116 15.7062C1.93694 16.2862 2.28097 16.8129 2.72171 17.2526C3.16246 17.6924 3.69023 18.0355 4.2713 18.26C4.94906 18.5251 5.66715 18.6727 6.39466 18.6966C7.33049 18.7374 7.62689 18.75 10 18.75C12.3731 18.75 12.6773 18.75 13.6053 18.6966C14.3314 18.6819 15.0496 18.5444 15.7297 18.2901C16.3106 18.0652 16.8381 17.7218 17.2787 17.2819C17.7192 16.8421 18.0631 16.3153 18.2884 15.7353C18.544 15.0561 18.681 14.3401 18.6956 13.6143C18.7374 12.6809 18.75 12.385 18.75 10.0146C18.75 7.64416 18.75 7.34337 18.6956 6.41481C18.6843 5.6796 18.5459 4.95187 18.2865 4.2637ZM17.1028 13.5124C17.0965 14.0716 16.9943 14.6256 16.8006 15.1503C16.6547 15.5276 16.4312 15.8702 16.1447 16.1561C15.8582 16.442 15.5149 16.6649 15.1369 16.8104C14.6172 17.003 14.0683 17.105 13.514 17.1122C12.5908 17.1549 12.3304 17.1655 9.96307 17.1655C7.59385 17.1655 7.35187 17.1655 6.41118 17.1122C5.85719 17.1054 5.30851 17.0033 4.78926 16.8104C4.40996 16.6658 4.06528 16.4433 3.77752 16.1574C3.48976 15.8714 3.26533 15.5283 3.11875 15.1503C2.92774 14.6312 2.82557 14.0838 2.81653 13.5309C2.77474 12.6091 2.76502 12.3491 2.76502 9.98545C2.76502 7.62087 2.76502 7.37927 2.81653 6.43907C2.82281 5.88021 2.92503 5.32656 3.11875 4.8022C3.41515 4.03665 4.02252 3.4341 4.78926 3.14108C5.30877 2.9491 5.85728 2.84705 6.41118 2.83932C7.33535 2.7976 7.59482 2.78596 9.96307 2.78596C12.3313 2.78596 12.5743 2.78596 13.514 2.83932C14.0683 2.84598 14.6173 2.94806 15.1369 3.14108C15.5148 3.28689 15.8581 3.50998 16.1446 3.79605C16.4311 4.08211 16.6546 4.42483 16.8006 4.8022C16.9916 5.32125 17.0938 5.8687 17.1028 6.4216C17.1446 7.34434 17.1553 7.6034 17.1553 9.96798C17.1553 12.3316 17.1553 12.5858 17.1135 13.5134H17.1028V13.5124Z" fill="#C2CDE7"/>
</svg>