<svg xmlns="http://www.w3.org/2000/svg" width="122" height="30" viewBox="0 0 122 30" fill="none">
  <path fill-rule="evenodd" clip-rule="evenodd" d="M5.31796 4.9132C5.16072 5.08745 5.17114 5.35479 5.33633 5.52138L25.7536 26.1073C25.9188 26.2739 26.1839 26.2844 26.3567 26.1259C29.3505 23.3792 31.2296 19.4191 31.2296 15.0164C31.2296 6.72308 24.5618 0 16.3363 0C11.9698 0 8.04213 1.89471 5.31796 4.9132ZM2.76613 8.82007C2.69068 8.98781 2.72872 9.18447 2.85787 9.31469L21.9914 28.6063C22.1205 28.7365 22.3155 28.7749 22.4819 28.6988C22.9239 28.4967 23.3544 28.2734 23.7721 28.0302C24.0203 27.8857 24.0583 27.5442 23.8556 27.3398L4.11392 7.435C3.91124 7.23063 3.57252 7.26898 3.42919 7.51927C3.18806 7.94039 2.96662 8.37441 2.76613 8.82007ZM1.60537 14.3441C1.51578 14.2538 1.46811 14.1293 1.47654 14.0018C1.51604 13.4049 1.59014 12.8175 1.69683 12.2417C1.7608 11.8964 2.17924 11.7766 2.42557 12.0249L19.3033 29.0422C19.5497 29.2905 19.4309 29.7124 19.0884 29.7769C18.5173 29.8845 17.9347 29.9592 17.3426 29.999C17.2163 30.0075 17.0928 29.9595 17.0032 29.8691L1.60537 14.3441ZM2.64111 18.5345C2.33361 18.2245 1.83737 18.4916 1.94998 18.9151C3.32205 24.075 7.35205 28.1383 12.4696 29.5217C12.8896 29.6352 13.1546 29.1349 12.8471 28.8249L2.64111 18.5345ZM61.4774 8.26355C62.545 8.26355 63.4103 7.38783 63.4103 6.30758C63.4103 5.22733 62.545 4.3516 61.4774 4.3516C60.41 4.3516 59.5447 5.22733 59.5447 6.30758C59.5447 7.38783 60.41 8.26355 61.4774 8.26355ZM44.9217 25.3217V4.35278H48.3566V22.2538H57.618V25.3217H44.9217ZM69.3695 16.7653V25.3217H66.046V10.4605H69.3279V13.0077L69.3695 12.9796C69.7032 12.1821 70.241 11.516 70.9828 10.9812C71.7243 10.437 72.6699 10.165 73.8198 10.165C74.8395 10.165 75.7664 10.3948 76.601 10.8546C77.4353 11.3049 78.1027 11.9663 78.6033 12.8389C79.1039 13.7114 79.3542 14.781 79.3542 16.0475V25.3217H76.0307V16.5119C76.0307 15.3861 75.7339 14.5323 75.1407 13.9506C74.5567 13.3596 73.7733 13.064 72.7905 13.064C72.1601 13.064 71.5852 13.1954 71.0662 13.4581C70.5471 13.7208 70.1345 14.1242 69.8285 14.6684C69.5226 15.2125 69.3695 15.9115 69.3695 16.7653ZM99.4635 25.0684C100.224 25.3968 101.095 25.561 102.078 25.561C102.884 25.561 103.575 25.4578 104.15 25.2513C104.725 25.0356 105.197 24.7494 105.568 24.3929C105.949 24.0364 106.249 23.647 106.472 23.2248H106.528V25.3217H109.713V15.0906C109.713 14.3681 109.573 13.7067 109.295 13.1063C109.017 12.5058 108.614 11.9851 108.085 11.5441C107.566 11.1032 106.936 10.7654 106.194 10.5309C105.453 10.2869 104.618 10.165 103.691 10.165C102.421 10.165 101.322 10.3855 100.395 10.8264C99.4772 11.258 98.7589 11.8397 98.2396 12.5715C97.7205 13.3033 97.4378 14.1289 97.3913 15.0483H100.604C100.641 14.6168 100.789 14.2321 101.049 13.8943C101.308 13.5566 101.661 13.2939 102.106 13.1063C102.551 12.9092 103.065 12.8107 103.65 12.8107C104.233 12.8107 104.729 12.9092 105.138 13.1063C105.554 13.3033 105.874 13.5707 106.097 13.9084C106.32 14.2462 106.431 14.6402 106.431 15.0906V15.2032C106.431 15.5409 106.315 15.7895 106.083 15.949C105.861 16.1085 105.481 16.2258 104.943 16.3008C104.415 16.3759 103.691 16.465 102.773 16.5682C102.022 16.6527 101.299 16.7793 100.604 16.9482C99.9087 17.1171 99.2873 17.3657 98.7402 17.6941C98.2027 18.0225 97.7762 18.4587 97.461 19.0029C97.1458 19.5471 96.9883 20.246 96.9883 21.0998C96.9883 22.0849 97.2106 22.9105 97.6556 23.5766C98.1006 24.2334 98.7033 24.7307 99.4635 25.0684ZM104.845 22.5774C104.307 22.8683 103.645 23.0137 102.856 23.0137C102.059 23.0137 101.424 22.8448 100.951 22.5071C100.478 22.16 100.242 21.6861 100.242 21.0857C100.242 20.6166 100.372 20.2366 100.632 19.9458C100.901 19.6549 101.253 19.4251 101.688 19.2562C102.124 19.0873 102.597 18.9701 103.106 18.9044C103.477 18.8481 103.839 18.7918 104.191 18.7355C104.543 18.6698 104.873 18.6088 105.179 18.5525C105.485 18.4869 105.745 18.4212 105.958 18.3555C106.18 18.2899 106.343 18.2195 106.445 18.1444V19.8051C106.445 20.3867 106.31 20.9215 106.041 21.4094C105.781 21.8879 105.383 22.2772 104.845 22.5774ZM112.613 25.3217V10.4605H115.81V12.9092H115.853C116.122 12.0648 116.543 11.4222 117.118 10.9812C117.702 10.5309 118.466 10.3057 119.413 10.3057C119.645 10.3057 119.853 10.3151 120.038 10.3339C120.233 10.3432 120.395 10.3526 120.525 10.362V13.3877C120.404 13.3689 120.191 13.3455 119.886 13.3174C119.579 13.2892 119.255 13.2751 118.912 13.2751C118.364 13.2751 117.864 13.4018 117.41 13.6551C116.956 13.9084 116.594 14.2978 116.325 14.8232C116.065 15.3392 115.936 15.9912 115.936 16.7793V25.3217H112.613ZM59.8088 25.3217V10.4605H63.1323V25.3217H59.8088ZM84.8822 24.6603C85.9484 25.3264 87.2141 25.6595 88.6788 25.6595C89.8098 25.6595 90.8388 25.453 91.766 25.0402C92.7024 24.618 93.4811 24.0411 94.1022 23.3093C94.7234 22.5681 95.1268 21.7143 95.3122 20.7479H92.1833C92.044 21.1889 91.8169 21.5783 91.5016 21.916C91.196 22.2444 90.8111 22.5024 90.3477 22.69C89.884 22.8777 89.3464 22.9715 88.7344 22.9715C87.9093 22.9715 87.2001 22.7839 86.6068 22.4086C86.0228 22.0333 85.5778 21.5126 85.2718 20.8465C84.9941 20.2333 84.8424 19.5391 84.8168 18.7636H95.5068V17.8629C95.5068 16.7184 95.3399 15.6769 95.0063 14.7387C94.6725 13.7911 94.1996 12.9749 93.5876 12.29C92.9759 11.5957 92.2389 11.061 91.3767 10.6857C90.5236 10.3104 89.5735 10.1228 88.5258 10.1228C87.1631 10.1228 85.9579 10.4558 84.9102 11.122C83.8625 11.7881 83.0421 12.7075 82.4486 13.8803C81.8555 15.053 81.5587 16.3947 81.5587 17.9052C81.5587 19.4063 81.8462 20.7433 82.421 21.916C82.9957 23.0794 83.8163 23.9942 84.8822 24.6603ZM91.8773 14.8232C91.5714 14.1852 91.1356 13.6926 90.57 13.3455C90.0045 12.9984 89.3371 12.8248 88.5675 12.8248C87.8073 12.8248 87.1443 12.9984 86.5788 13.3455C86.0228 13.6926 85.5871 14.1852 85.2718 14.8232C85.0469 15.2852 84.9045 15.8106 84.845 16.3994H92.3039C92.2443 15.8106 92.1021 15.2852 91.8773 14.8232Z" fill="#858FAD"/>
</svg>