<svg xmlns="http://www.w3.org/2000/svg" width="20" height="20" viewBox="0 0 20 20" fill="none">
  <path fill-rule="evenodd" clip-rule="evenodd" d="M3.4375 1.25C2.22938 1.25 1.25 2.22938 1.25 3.4375V16.5625C1.25 17.7707 2.22938 18.75 3.4375 18.75H16.5625C17.7707 18.75 18.75 17.7707 18.75 16.5625V3.4375C18.75 2.22938 17.7707 1.25 16.5625 1.25H3.4375ZM6.71875 8.63281V15.4688H4.53125V8.63281H6.71875ZM6.71875 6.17196C6.71875 6.7795 6.29666 7.26562 5.61853 7.26562H5.60585C4.95324 7.26562 4.53125 6.7795 4.53125 6.17196C4.53125 5.55077 4.96618 5.07812 5.63139 5.07812C6.29666 5.07812 6.70612 5.55077 6.71875 6.17196ZM10.5469 15.4688H8.35938C8.35938 15.4688 8.39413 9.37901 8.35945 8.63281H10.5469V9.76343C10.5469 9.76343 11.0938 8.63281 12.7344 8.63281C14.375 8.63281 15.4688 9.56012 15.4688 12.0027V15.4688H13.2812V12.3081C13.2812 12.3081 13.2812 10.5099 11.8989 10.5099C10.5165 10.5099 10.5469 12.1216 10.5469 12.1216V15.4688Z" fill="#C2CDE7"/>
</svg>