<svg xmlns="http://www.w3.org/2000/svg" width="103" height="30" viewBox="0 0 103 30" fill="none">
  <mask id="mask0_9812_27888" style="mask-type:luminance" maskUnits="userSpaceOnUse" x="1" y="0" width="101" height="30">
    <path d="M101.998 0H1.00098V30H101.998V0Z" fill="white"/>
  </mask>
  <g mask="url(#mask0_9812_27888)">
    <path d="M31.3101 13.43H22.0769L30.0729 8.86L28.4872 6.14L20.4903 10.71L25.1058 2.795L22.3588 1.225L17.7422 9.138V0H14.5689V9.139L9.9523 1.225L7.20419 2.795L11.8197 10.708L3.82485 6.14L2.23819 8.86L10.2341 13.43H1.00098V16.571H10.2331L2.23819 21.141L3.82384 23.861L11.8207 19.291L7.20419 27.206L9.9513 28.776L14.5689 20.862V30H17.7422V20.666L22.4436 28.726L25.02 27.254L20.3176 19.192L28.4852 23.86L30.0719 21.14L22.0769 16.57H31.3091L31.3101 13.43ZM16.1555 19.27C15.5891 19.2701 15.0281 19.1597 14.5048 18.9451C13.9814 18.7305 13.5058 18.416 13.1052 18.0194C12.7046 17.6228 12.3868 17.1521 12.17 16.6339C11.9532 16.1157 11.8416 15.5604 11.8415 14.9995C11.8414 14.4386 11.9529 13.8833 12.1696 13.365C12.3863 12.8468 12.704 12.3759 13.1045 11.9793C13.505 11.5827 13.9805 11.268 14.5038 11.0533C15.0271 10.8386 15.5881 10.7281 16.1545 10.728C17.2986 10.7278 18.3958 11.1777 19.2048 11.9786C20.0139 12.7795 20.4684 13.8657 20.4686 14.9985C20.4688 16.1312 20.0144 17.2177 19.2055 18.0187C18.3967 18.8197 17.2996 19.2698 16.1555 19.27Z" fill="#858FAD"/>
    <path d="M39.4902 25.9733V4.02734H43.5584V25.9733H39.4902ZM78.5083 11.0593H82.3927V12.8793C83.2188 11.4243 85.1472 10.6353 86.7984 10.6353C88.8485 10.6353 90.4997 11.5153 91.2638 13.1203C92.4561 11.3003 94.0479 10.6353 96.0361 10.6353C98.8194 10.6353 101.48 12.3023 101.48 16.3033V25.9733H97.5352V17.1223C97.5352 15.5153 96.7392 14.3023 94.8731 14.3023C93.1283 14.3023 92.0882 15.6373 92.0882 17.2443V25.9743H88.0525V17.1223C88.0525 15.5153 87.2265 14.3023 85.3905 14.3023C83.6157 14.3023 82.5755 15.6073 82.5755 17.2443V25.9743H78.5083V11.0593ZM52.7522 26.4053C48.1689 26.4053 44.8502 23.0383 44.8502 18.5163C44.8502 14.0663 48.1588 10.6203 52.7522 10.6203C57.3677 10.6203 60.6542 14.0983 60.6542 18.5163C60.6542 23.0063 57.3334 26.4053 52.7522 26.4053ZM52.7522 14.2703C51.6153 14.2719 50.5255 14.72 49.722 15.5162C48.9184 16.3124 48.4667 17.3917 48.4658 18.5173C48.4667 19.643 48.9184 20.7222 49.722 21.5185C50.5255 22.3147 51.6153 22.7627 52.7522 22.7643C53.8888 22.7625 54.9783 22.3143 55.7816 21.5182C56.585 20.722 57.0367 19.6427 57.0374 18.5173C57.0367 17.3919 56.585 16.3127 55.7816 15.5166C54.9783 14.7204 53.8888 14.2722 52.7522 14.2703ZM69.3429 26.4053C64.7596 26.4053 61.4409 23.0383 61.4409 18.5163C61.4409 14.0663 64.7495 10.6203 69.3429 10.6203C73.9585 10.6203 77.2449 14.0983 77.2449 18.5163C77.2449 23.0063 73.9221 26.4053 69.3429 26.4053ZM69.3429 14.2193C68.193 14.2212 67.0908 14.6745 66.278 15.4798C65.4652 16.2852 65.0081 17.3768 65.0071 18.5153C65.0081 19.6539 65.4652 20.7455 66.278 21.5508C67.0908 22.3562 68.193 22.8095 69.3429 22.8113C70.4927 22.8095 71.5949 22.3562 72.4077 21.5508C73.2205 20.7455 73.6776 19.6539 73.6786 18.5153C73.6776 17.3768 73.2205 16.2852 72.4077 15.4798C71.5949 14.6745 70.4927 14.2212 69.3429 14.2193Z" fill="#858FAD"/>
  </g>
</svg>