<svg xmlns="http://www.w3.org/2000/svg" width="151" height="32" viewBox="0 0 151 32" fill="none">
  <g clip-path="url(#clip0_9812_27938)">
    <path d="M62.8812 6.40074V25.6007H59.5489V10.5341H59.5045L53.5507 25.6007H51.3291L45.242 10.5341H45.1976V25.6007H42.1318V6.40074H46.9304L52.4399 20.623H52.5288L58.3493 6.40074H62.8812ZM65.636 7.8674C65.636 7.33407 65.8137 6.88963 66.2136 6.53407C66.6135 6.17852 67.0578 6.00074 67.591 6.00074C68.1686 6.00074 68.6573 6.17852 69.0128 6.53407C69.3682 6.88963 69.5904 7.33407 69.5904 7.8674C69.5904 8.40074 69.4126 8.84518 69.0128 9.20074C68.6129 9.55629 68.1686 9.73407 67.591 9.73407C67.0134 9.73407 66.569 9.55629 66.2136 9.20074C65.8581 8.80074 65.636 8.35629 65.636 7.8674ZM69.2349 11.823V25.6007H65.9914V11.823H69.2349ZM79.0542 23.2452C79.543 23.2452 80.0761 23.1563 80.6538 22.8896C81.2314 22.6674 81.7645 22.3563 82.2533 22.0007V25.023C81.7201 25.3341 81.1425 25.5563 80.476 25.6896C79.8096 25.823 79.0987 25.9118 78.2989 25.9118C76.2551 25.9118 74.6111 25.2896 73.367 24.0007C72.0785 22.7118 71.4565 21.0674 71.4565 19.1118C71.4565 16.8896 72.123 15.0674 73.4115 13.6452C74.7 12.223 76.5216 11.5118 78.9209 11.5118C79.543 11.5118 80.165 11.6007 80.7426 11.7341C81.3647 11.8674 81.8534 12.0896 82.2089 12.2674V15.3785C81.7201 15.023 81.1869 14.7118 80.6982 14.5341C80.165 14.3563 79.6318 14.223 79.0987 14.223C77.8102 14.223 76.7882 14.623 75.9885 15.4674C75.1887 16.3118 74.8333 17.423 74.8333 18.8452C74.8333 20.223 75.2331 21.3341 75.9885 22.0896C76.7438 22.8452 77.7657 23.2452 79.0542 23.2452ZM91.4506 11.6007C91.7171 11.6007 91.9393 11.6007 92.1615 11.6452C92.3836 11.6896 92.5613 11.7341 92.6946 11.7785V15.0674C92.5169 14.9341 92.2948 14.8007 91.9393 14.7118C91.5839 14.623 91.2284 14.5341 90.7397 14.5341C89.9399 14.5341 89.2734 14.8896 88.7403 15.5563C88.2071 16.223 87.8961 17.2452 87.8961 18.6674V25.6007H84.6526V11.823H87.8961V14.0007H87.9405C88.2515 13.2452 88.6958 12.6674 89.2734 12.223C89.8955 11.823 90.6064 11.6007 91.4506 11.6007ZM92.8724 18.9341C92.8724 16.6674 93.5388 14.8452 94.7829 13.5118C96.0714 12.1785 97.8487 11.5118 100.115 11.5118C102.247 11.5118 103.936 12.1341 105.135 13.423C106.335 14.7118 106.957 16.4452 106.957 18.623C106.957 20.8452 106.291 22.623 105.047 23.9563C103.758 25.2896 102.025 25.9563 99.8036 25.9563C97.6709 25.9563 95.9826 25.3341 94.7385 24.0896C93.4944 22.8007 92.8724 21.0674 92.8724 18.9341ZM96.2491 18.8007C96.2491 20.223 96.5602 21.3341 97.2266 22.0896C97.8931 22.8452 98.8262 23.2452 100.026 23.2452C101.181 23.2452 102.114 22.8896 102.736 22.0896C103.358 21.3341 103.669 20.223 103.669 18.7118C103.669 17.2452 103.358 16.1341 102.736 15.3341C102.114 14.5785 101.181 14.1785 100.07 14.1785C98.8706 14.1785 97.982 14.5785 97.3155 15.3785C96.5602 16.223 96.2491 17.3341 96.2491 18.8007ZM111.8 15.4674C111.8 15.9118 111.933 16.3118 112.244 16.5785C112.555 16.8452 113.177 17.1563 114.199 17.5563C115.488 18.0896 116.421 18.6674 116.91 19.2896C117.443 19.9563 117.709 20.7118 117.709 21.6452C117.709 22.9341 117.221 23.9563 116.199 24.7563C115.221 25.5563 113.844 25.9118 112.156 25.9118C111.578 25.9118 110.956 25.823 110.245 25.6896C109.534 25.5563 108.956 25.3785 108.468 25.1563V21.9563C109.045 22.3563 109.712 22.7118 110.378 22.9341C111.045 23.1563 111.667 23.2896 112.244 23.2896C112.955 23.2896 113.533 23.2007 113.844 22.9785C114.199 22.7563 114.377 22.4452 114.377 21.9563C114.377 21.5118 114.199 21.1563 113.844 20.8007C113.488 20.4896 112.778 20.1341 111.8 19.7341C110.6 19.2452 109.756 18.6674 109.268 18.0452C108.779 17.423 108.512 16.623 108.512 15.6452C108.512 14.4007 109.001 13.3785 109.978 12.5785C110.956 11.7785 112.244 11.3785 113.799 11.3785C114.288 11.3785 114.821 11.423 115.399 11.5563C115.977 11.6896 116.51 11.823 116.91 11.9563V15.1118C116.465 14.8452 115.977 14.5785 115.399 14.3563C114.821 14.1341 114.244 14.0452 113.711 14.0452C113.089 14.0452 112.6 14.1785 112.289 14.4007C111.978 14.7118 111.8 15.023 111.8 15.4674ZM119.087 18.9341C119.087 16.6674 119.753 14.8452 120.997 13.5118C122.286 12.1785 124.063 11.5118 126.329 11.5118C128.462 11.5118 130.15 12.1341 131.35 13.423C132.549 14.7118 133.172 16.4452 133.172 18.623C133.172 20.8452 132.505 22.623 131.261 23.9563C129.972 25.2896 128.24 25.9563 126.018 25.9563C123.885 25.9563 122.197 25.3341 120.953 24.0896C119.753 22.8007 119.087 21.0674 119.087 18.9341ZM122.464 18.8007C122.464 20.223 122.775 21.3341 123.441 22.0896C124.108 22.8452 125.041 23.2452 126.24 23.2452C127.395 23.2452 128.329 22.8896 128.951 22.0896C129.573 21.3341 129.884 20.223 129.884 18.7118C129.884 17.2452 129.573 16.1341 128.951 15.3341C128.329 14.5785 127.395 14.1785 126.285 14.1785C125.085 14.1785 124.196 14.5785 123.53 15.3785C122.819 16.223 122.464 17.3341 122.464 18.8007ZM143.968 14.4896H139.125V25.6007H135.837V14.4896H133.527V11.823H135.837V9.91185C135.837 8.48963 136.326 7.28963 137.259 6.35629C138.192 5.42296 139.392 4.97852 140.858 4.97852C141.258 4.97852 141.613 5.02296 141.924 5.02296C142.236 5.02296 142.502 5.11185 142.724 5.20074V8.00074C142.635 7.95629 142.413 7.8674 142.147 7.77852C141.88 7.68963 141.569 7.64518 141.214 7.64518C140.547 7.64518 140.014 7.8674 139.659 8.2674C139.303 8.6674 139.125 9.33407 139.125 10.1341V11.7785H143.968V8.6674L147.212 7.68963V11.7785H150.5V14.4452H147.212V20.8896C147.212 21.7341 147.39 22.3118 147.656 22.6674C147.967 23.023 148.456 23.2007 149.122 23.2007C149.3 23.2007 149.522 23.1563 149.789 23.0674C150.055 22.9785 150.278 22.8896 150.455 22.7563V25.423C150.233 25.5563 149.922 25.6452 149.433 25.7341C148.945 25.823 148.5 25.8674 148.012 25.8674C146.634 25.8674 145.612 25.5118 144.946 24.8007C144.279 24.0896 143.924 22.9785 143.924 21.5118L143.968 14.4896Z" fill="#858FAD"/>
    <path d="M15.6955 0H0.5V15.2H15.6955V0Z" fill="#858FAD"/>
    <path d="M32.4904 0H17.2949V15.2H32.4904V0Z" fill="#858FAD"/>
    <path d="M15.6955 16.7998H0.5V31.9998H15.6955V16.7998Z" fill="#858FAD"/>
    <path d="M32.4904 16.7998H17.2949V31.9998H32.4904V16.7998Z" fill="#858FAD"/>
  </g>
  <defs>
    <clipPath id="clip0_9812_27938">
      <rect width="150" height="32" fill="white" transform="translate(0.5)"/>
    </clipPath>
  </defs>
</svg>