<svg width="141" height="32" viewBox="0 0 141 32" fill="none" xmlns="http://www.w3.org/2000/svg">
<g clip-path="url(#clip0_9812_27907)">
<path d="M138.689 24.0137V23.6148H138.933C139.063 23.6148 139.249 23.6296 139.249 23.7921C139.249 23.9546 139.149 24.0137 138.991 24.0137H138.689ZM138.689 24.2944H138.862L139.249 24.9888H139.666L139.235 24.2649C139.45 24.2797 139.623 24.1172 139.637 23.8955V23.8364C139.637 23.4523 139.379 23.3341 138.948 23.3341H138.33V24.9888H138.689V24.2944ZM140.499 24.1615C140.499 23.1864 139.766 22.625 138.948 22.625C138.129 22.625 137.396 23.1864 137.396 24.1615C137.396 25.1365 138.129 25.6979 138.948 25.6979C139.766 25.6979 140.499 25.1365 140.499 24.1615ZM140.039 24.1615C140.068 24.782 139.594 25.3138 138.991 25.3434H138.948C138.316 25.3729 137.784 24.8558 137.756 24.2058C137.727 23.5557 138.23 23.0091 138.862 22.9796C139.494 22.95 140.025 23.4671 140.054 24.1172C140.039 24.1319 140.039 24.1467 140.039 24.1615Z" fill="#858FAD"/>
<path d="M83.5501 7.7483V25.1814H88.3331V7.7483H83.5501ZM45.918 7.71875V25.1666H50.7441V11.619L54.5073 11.6338C55.7425 11.6338 56.6043 11.9441 57.1932 12.5941C57.9545 13.4214 58.2561 14.7658 58.2561 17.2035V25.1666H62.9386V15.5341C62.9386 8.6495 58.6727 7.71875 54.5073 7.71875H45.918ZM91.2632 7.7483V25.1814H99.0194C103.156 25.1814 104.506 24.4722 105.957 22.8914C106.991 21.7834 107.652 19.3309 107.652 16.6569C107.652 14.2044 107.092 12.0179 106.101 10.6587C104.348 8.22106 101.792 7.7483 97.9709 7.7483H91.2632ZM96.0031 11.5304H98.0571C101.045 11.5304 102.969 12.9043 102.969 16.4796C102.969 20.0549 101.045 21.4436 98.0571 21.4436H96.0031V11.5304ZM76.6556 7.7483L72.6626 21.5618L68.8419 7.7483H63.6711L69.1292 25.1814H76.0236L81.5392 7.7483H76.6556ZM109.893 25.1814H114.676V7.7483H109.893V25.1814ZM123.308 7.7483L116.629 25.1666H121.34L122.403 22.0789H130.303L131.308 25.1518H136.436L129.7 7.7483H123.308ZM126.41 10.9247L129.312 19.0798H123.423L126.41 10.9247Z" fill="#858FAD"/>
<path d="M15.0501 10.6453V8.25196C15.2799 8.23718 15.5097 8.22241 15.7396 8.22241C22.1169 8.01557 26.2967 13.866 26.2967 13.866C26.2967 13.866 21.7866 20.3074 16.9461 20.3074C16.2997 20.3074 15.6677 20.2039 15.0645 19.9971V12.7284C17.5493 13.0387 18.0521 14.1615 19.5315 16.7173L22.8494 13.8512C22.8494 13.8512 20.422 10.5862 16.3428 10.5862C15.9119 10.5714 15.481 10.601 15.0501 10.6453ZM15.0501 2.72656V6.30182L15.7396 6.25749C24.6018 5.94725 30.3902 13.733 30.3902 13.733C30.3902 13.733 23.7543 22.0359 16.8455 22.0359C16.2423 22.0359 15.6534 21.9768 15.0645 21.8734V24.0894C15.5528 24.1485 16.0556 24.1929 16.5439 24.1929C22.9787 24.1929 27.6325 20.8097 32.1426 16.8207C32.8895 17.4412 35.9489 18.9334 36.5808 19.5834C32.3006 23.2769 22.318 26.2464 16.6588 26.2464C16.113 26.2464 15.5959 26.2169 15.0788 26.1578V29.275H39.5253V2.72656L15.0501 2.72656ZM15.0501 19.9971V21.8881C9.10367 20.7949 7.45188 14.4274 7.45188 14.4274C7.45188 14.4274 10.3102 11.1772 15.0501 10.6453V12.7136H15.0358C12.5509 12.4034 10.5975 14.7967 10.5975 14.7967C10.5975 14.7967 11.7034 18.83 15.0501 19.9971ZM4.49302 14.1615C4.49302 14.1615 8.01206 8.81336 15.0645 8.25196V6.30182C7.2508 6.95186 0.5 13.7478 0.5 13.7478C0.5 13.7478 4.32066 25.1236 15.0501 26.1578V24.0894C7.17898 23.0848 4.49302 14.1615 4.49302 14.1615Z" fill="#858FAD"/>
</g>
<defs>
<clipPath id="clip0_9812_27907">
<rect width="140" height="32" fill="white" transform="translate(0.5)"/>
</clipPath>
</defs>
</svg>
