<svg xmlns="http://www.w3.org/2000/svg" width="61" height="51" viewBox="0 0 61 51" fill="none">
  <g clip-path="url(#clip0_15620_64497)">
    <path d="M27.8182 30.1364V44.0455C27.8182 45.9773 27.142 47.6193 25.7898 48.9716C24.4375 50.3239 22.7955 51 20.8636 51H6.95455C5.02273 51 3.38068 50.3239 2.02841 48.9716C0.676136 47.6193 0 45.9773 0 44.0455V18.5455C0 16.0341 0.488991 13.6374 1.46697 11.3555C2.44496 9.07351 3.76705 7.09943 5.43324 5.43324C7.09943 3.76705 9.07351 2.44496 11.3555 1.46697C13.6374 0.488991 16.0341 0 18.5455 0H20.8636C21.4915 0 22.0348 0.229403 22.4936 0.68821C22.9524 1.14702 23.1818 1.69034 23.1818 2.31818V6.95455C23.1818 7.58239 22.9524 8.12571 22.4936 8.58452C22.0348 9.04332 21.4915 9.27273 20.8636 9.27273H18.5455C15.9858 9.27273 13.8004 10.1783 11.9893 11.9893C10.1783 13.8004 9.27273 15.9858 9.27273 18.5455V19.7045C9.27273 20.6705 9.6108 21.4915 10.2869 22.1676C10.9631 22.8438 11.7841 23.1818 12.75 23.1818H20.8636C22.7955 23.1818 24.4375 23.858 25.7898 25.2102C27.142 26.5625 27.8182 28.2045 27.8182 30.1364ZM60.2727 30.1364V44.0455C60.2727 45.9773 59.5966 47.6193 58.2443 48.9716C56.892 50.3239 55.25 51 53.3182 51H39.4091C37.4773 51 35.8352 50.3239 34.483 48.9716C33.1307 47.6193 32.4545 45.9773 32.4545 44.0455V18.5455C32.4545 16.0341 32.9435 13.6374 33.9215 11.3555C34.8995 9.07351 36.2216 7.09943 37.8878 5.43324C39.554 3.76705 41.5281 2.44496 43.81 1.46697C46.092 0.488991 48.4886 0 51 0H53.3182C53.946 0 54.4893 0.229403 54.9482 0.68821C55.407 1.14702 55.6364 1.69034 55.6364 2.31818V6.95455C55.6364 7.58239 55.407 8.12571 54.9482 8.58452C54.4893 9.04332 53.946 9.27273 53.3182 9.27273H51C48.4403 9.27273 46.255 10.1783 44.4439 11.9893C42.6328 13.8004 41.7273 15.9858 41.7273 18.5455V19.7045C41.7273 20.6705 42.0653 21.4915 42.7415 22.1676C43.4176 22.8438 44.2386 23.1818 45.2045 23.1818H53.3182C55.25 23.1818 56.892 23.858 58.2443 25.2102C59.5966 26.5625 60.2727 28.2045 60.2727 30.1364Z" fill="url(#paint0_linear_15620_64497)"/>
  </g>
  <defs>
    <linearGradient id="paint0_linear_15620_64497" x1="30.1363" y1="-0.00119786" x2="30.1363" y2="51.0011" gradientUnits="userSpaceOnUse">
      <stop stop-color="#D1D4FA"/>
      <stop offset="1" stop-color="#9EA6FA"/>
    </linearGradient>
    <clipPath id="clip0_15620_64497">
      <rect width="60.2727" height="51" fill="white"/>
    </clipPath>
  </defs>
</svg>