<svg xmlns="http://www.w3.org/2000/svg" width="42" height="38" viewBox="0 0 42 38" fill="none">
  <g clip-path="url(#clip0_7421_56659)">
    <path d="M26.7094 35.7994V35.2994C25.6758 34.7661 24.5438 33.9994 23.3789 32.9828C23.018 32.6661 22.6734 32.3328 22.3289 31.9994C23.5102 30.6828 24.6914 29.1494 25.8563 27.4661C26.1516 27.4328 26.4305 27.4161 26.7258 27.3828V22.6661C26.1352 23.6994 25.5117 24.7161 24.8555 25.7161C23.5758 25.8161 22.2961 25.8494 21.0164 25.8494C19.7039 25.8494 18.4406 25.8161 17.2102 25.7328C16.4883 24.6494 15.7992 23.5494 15.1594 22.4328C14.5195 21.3161 13.9289 20.1661 13.3711 18.9994C13.9289 17.8328 14.5195 16.6828 15.1594 15.5661C15.7992 14.4494 16.4719 13.3494 17.1938 12.2661C18.4406 12.1661 19.7203 12.1161 21.0164 12.1161C22.3125 12.1161 23.5922 12.1661 24.8555 12.2661C25.5609 13.3328 26.25 14.4328 26.8734 15.5494C27.0375 15.8328 27.1852 16.0994 27.3492 16.3828C27.7102 15.8828 28.2188 15.4994 28.793 15.2828C28.6781 15.0661 28.5469 14.8494 28.432 14.6328C28.0219 13.9161 27.5953 13.1994 27.1523 12.4994C28.4977 12.6661 29.7773 12.8994 30.975 13.1828C30.7781 13.8161 30.5648 14.4494 30.3188 15.0994H32.2219C32.4023 14.5994 32.55 14.1161 32.6977 13.6328C33.1242 13.7661 33.5508 13.8994 33.9445 14.0328C34.8797 14.3494 35.7164 14.7161 36.4547 15.0994H39.7688C38.4727 14.0161 36.6844 13.0661 34.5188 12.2994C34.0758 12.1494 33.6164 11.9994 33.1734 11.8661C33.2555 11.5494 33.3211 11.2328 33.3867 10.9328C34.4039 5.88276 33.7477 1.8161 31.4508 0.482765C29.2523 -0.800568 25.6758 0.532765 22.05 3.73276C21.6891 4.04943 21.3445 4.3661 21 4.69943L20.3109 4.04943C16.5375 0.632765 12.7313 -0.800568 10.4508 0.532765C8.25235 1.83277 7.6125 5.64943 8.53125 10.4328C8.62969 10.8994 8.72813 11.3828 8.84297 11.8494C8.30156 11.9994 7.79297 12.1661 7.28438 12.3494C2.83828 13.9161 0 16.3828 0 18.9494C0 21.5994 3.05156 24.2494 7.67813 25.8494C8.05547 25.9828 8.43281 26.0994 8.81016 26.2161C8.67891 26.7161 8.58047 27.2328 8.48203 27.7328C7.59609 32.4328 8.28516 36.1661 10.4672 37.4494C12.7148 38.7661 16.5047 37.4161 20.1961 34.1328C20.4914 33.8661 20.7867 33.5994 21.0656 33.3161C21.4266 33.6828 21.8203 34.0328 22.1977 34.3661C23.9203 35.8661 25.643 36.9494 27.2016 37.4994C26.8898 37.0161 26.7094 36.4328 26.7094 35.7994ZM13.5844 23.3328C14.0109 24.0828 14.4539 24.8161 14.8969 25.5161C13.5188 25.3661 12.2227 25.1494 11.025 24.8828C11.4023 23.6661 11.8453 22.3994 12.3867 21.1161C12.7805 21.8828 13.1742 22.6161 13.5844 23.3328ZM13.5844 14.6328C13.1742 15.3661 12.7805 16.0994 12.4031 16.8328C11.8781 15.5661 11.4352 14.3328 11.0742 13.1328C12.2719 12.8661 13.5516 12.6328 14.8805 12.4661C14.4211 13.1994 13.9945 13.9161 13.5844 14.6328ZM23.2477 5.1161C26.3484 2.38277 29.2523 1.29943 30.5648 2.0661C31.9758 2.88277 32.5172 6.2161 31.6313 10.5661C31.582 10.8494 31.5164 11.1328 31.4508 11.4161C29.7117 10.9994 27.8086 10.6994 25.8398 10.5161C24.6914 8.84943 23.4938 7.33277 22.2961 6.0161C22.5914 5.69943 22.9195 5.39943 23.2477 5.1161ZM21.0164 7.3161C21.8367 8.23277 22.6734 9.24943 23.4938 10.3494C21.8367 10.2661 20.1797 10.2661 18.5227 10.3494C19.343 9.24943 20.1797 8.23277 21.0164 7.3161ZM11.3531 2.1161C12.7641 1.28276 15.8648 2.4661 19.1461 5.4161C19.3594 5.6161 19.5727 5.79943 19.7695 5.99943C18.5555 7.33277 17.3414 8.84943 16.193 10.4994C14.2242 10.6828 12.3211 10.9828 10.582 11.3828C10.4672 10.9494 10.3852 10.5161 10.2867 10.0661C9.49922 5.98277 10.0242 2.89943 11.3531 2.1161ZM9.30234 24.4494C8.95781 24.3494 8.61328 24.2328 8.26875 24.1161C6.21797 23.3994 4.52813 22.4828 3.36328 21.4661C2.32969 20.5661 1.78828 19.6661 1.78828 18.9328C1.78828 17.3828 4.06875 15.3994 7.875 14.0494C8.33438 13.8828 8.82656 13.7328 9.31875 13.5828C9.84375 15.3161 10.5328 17.1328 11.3695 18.9661C10.5328 20.8494 9.82734 22.6994 9.30234 24.4494ZM19.0148 32.7661C17.3906 34.2161 15.75 35.2328 14.3063 35.7494C13.0102 36.2161 11.9766 36.2328 11.3531 35.8661C10.0242 35.0828 9.48281 32.0994 10.2211 28.0661C10.3031 27.5994 10.418 27.1161 10.5328 26.6494C12.2555 27.0328 14.1586 27.3161 16.193 27.4828C17.3578 29.1494 18.5719 30.6661 19.8023 32.0161C19.5563 32.2661 19.2938 32.5161 19.0148 32.7661ZM21.0656 30.6994C20.2125 29.7661 19.3594 28.7328 18.5391 27.6328C19.343 27.6661 20.1633 27.6828 21 27.6828C21.8531 27.6828 22.7063 27.6661 23.543 27.6328C22.7227 28.7494 21.8859 29.7828 21.0656 30.6994Z" fill="#00D8FF"/>
    <path d="M21.603 22.7168C23.6512 22.3793 25.0423 20.419 24.7101 18.3383C24.3778 16.2576 22.4482 14.8444 20.4 15.1819C18.3518 15.5194 16.9607 17.4797 17.2929 19.5604C17.6251 21.6411 19.5548 23.0542 21.603 22.7168Z" fill="#00D8FF"/>
    <path d="M39.2107 37.9498H30.7451C29.4326 37.9498 28.3662 36.8831 28.3662 35.5665V18.9331C28.3662 17.6165 29.4326 16.5498 30.7451 16.5498H39.2107C40.5232 16.5498 41.5896 17.6165 41.5896 18.9331V35.5665C41.5896 36.8665 40.5232 37.9498 39.2107 37.9498ZM30.7451 18.2498C30.3678 18.2498 30.0725 18.5498 30.0725 18.9331V35.5665C30.0725 35.9331 30.3678 36.2498 30.7451 36.2498H39.2107C39.5881 36.2498 39.8834 35.9498 39.8834 35.5665V18.9331C39.8834 18.5665 39.5881 18.2498 39.2107 18.2498H30.7451Z" fill="#00D8FF"/>
    <path d="M36.0777 20.3504H33.9941C33.666 20.3504 33.4199 20.0837 33.4199 19.7671V19.7337C33.4199 19.4004 33.6824 19.1504 33.9941 19.1504H36.0777C36.4059 19.1504 36.652 19.4171 36.652 19.7337V19.7671C36.6684 20.0837 36.4059 20.3504 36.0777 20.3504Z" fill="#00D8FF"/>
    <path d="M35.0109 35.4838C35.4549 35.4838 35.8148 35.1256 35.8148 34.6838C35.8148 34.242 35.4549 33.8838 35.0109 33.8838C34.567 33.8838 34.207 34.242 34.207 34.6838C34.207 35.1256 34.567 35.4838 35.0109 35.4838Z" fill="#00D8FF"/>
  </g>
  <defs>
    <clipPath id="clip0_7421_56659">
      <rect width="42" height="38" fill="white"/>
    </clipPath>
  </defs>
</svg>