<svg xmlns="http://www.w3.org/2000/svg" width="89" height="79" viewBox="0 0 89 79" fill="none">
  <path d="M44.5161 47.345C48.9082 47.345 52.4687 43.7932 52.4687 39.4117C52.4687 35.0303 48.9082 31.4785 44.5161 31.4785C40.124 31.4785 36.5635 35.0303 36.5635 39.4117C36.5635 43.7932 40.124 47.345 44.5161 47.345Z" fill="#00D8FF"/>
  <path d="M44.5158 57.5858C33.3473 57.5858 23.5886 56.2741 16.2855 53.7772C11.5488 52.1652 7.52492 50.016 4.65753 47.5665C1.61588 44.9747 0 42.1459 0 39.412C0 34.1653 5.76647 29.0292 15.4459 25.6789C23.3669 22.9291 33.6958 21.3962 44.5 21.3962C55.1141 21.3962 65.3005 22.8817 73.1739 25.5999C77.7839 27.1802 81.6652 29.2346 84.4217 31.5103C87.4158 34.0072 89 36.7412 89 39.412C89 44.8641 82.5523 50.3795 72.16 53.8088C64.8094 56.2425 54.9874 57.5858 44.5158 57.5858ZM44.5158 25.189C34.2661 25.189 24.1273 26.6745 16.7132 29.2504C7.81007 32.3479 3.81791 36.5832 3.81791 39.412C3.81791 42.3514 8.11107 46.9817 17.5212 50.1898C24.4283 52.5445 33.775 53.793 44.5158 53.793C54.5913 53.793 63.9856 52.5287 70.9719 50.2056C80.7464 46.9659 85.2138 42.3356 85.2138 39.412C85.2138 37.9106 84.0732 36.1407 81.9979 34.4181C79.6057 32.4269 76.1205 30.6095 71.9541 29.1714C64.4608 26.6113 54.7181 25.189 44.5158 25.189Z" fill="#00D8FF"/>
  <path d="M26.4725 78.9514C24.8566 78.9514 23.4308 78.6038 22.2269 77.9084C17.6802 75.2851 16.096 67.7311 18.0129 57.696C19.5813 49.4624 23.415 39.7908 28.8171 30.451C34.1242 21.2851 40.4926 13.2254 46.7819 7.77327C50.4572 4.581 54.1801 2.24211 57.5386 1.00945C61.198 -0.333837 64.3664 -0.333836 66.6794 0.993643C71.4161 3.71181 72.9845 12.056 70.7666 22.739C69.1982 30.3246 65.4595 39.4747 60.2317 48.53C54.6553 58.1701 48.6354 65.9453 42.8214 71.0182C39.051 74.3053 35.1697 76.7074 31.6211 77.9558C29.7676 78.6196 28.025 78.9514 26.4725 78.9514ZM30.4488 31.3992L32.0964 32.3474C26.9794 41.1973 23.1932 50.6951 21.7358 58.4071C19.9773 67.6521 21.6724 73.2148 24.1121 74.6213C24.714 74.969 25.5061 75.1586 26.4725 75.1586C29.625 75.1586 34.5836 73.1674 40.3184 68.1736C45.8155 63.3852 51.5661 55.926 56.9366 46.6494C61.9743 37.9418 65.5546 29.1868 67.0437 21.9963C69.119 11.9295 67.3289 5.76625 64.7783 4.29654C63.4793 3.55378 61.3723 3.6486 58.8376 4.581C55.9068 5.65562 52.5959 7.75747 49.2691 10.6495C43.2966 15.833 37.1975 23.545 32.0964 32.3632L30.4488 31.3992Z" fill="#00D8FF"/>
  <path d="M62.5607 79C58.2517 79 52.7862 76.4083 47.0831 71.5092C40.7147 66.0413 34.2353 57.9026 28.8174 48.5628C23.4945 39.3969 19.6924 29.8675 18.0924 21.6972C17.1577 16.9246 16.9834 12.547 17.5854 9.02289C18.2508 5.18268 19.8192 2.44871 22.1479 1.10543C26.8688 -1.62855 34.9007 1.18444 43.0751 8.43817C48.8733 13.5742 54.9566 21.3811 60.2002 30.4206C65.7924 40.0606 69.547 49.1475 71.0361 56.7015C72.0025 61.6005 72.1609 66.1519 71.4797 69.8499C70.751 73.7849 69.1034 76.5821 66.7271 77.957C65.539 78.6523 64.129 79 62.5607 79ZM32.1125 46.6664C37.2453 55.5163 43.6137 63.5285 49.5703 68.633C56.715 74.7647 62.3864 76.0922 64.8419 74.6699C67.3925 73.2002 69.2618 67.1791 67.3291 57.4443C65.9033 50.3012 62.3072 41.6093 56.921 32.3328C51.8674 23.6252 46.0534 16.1502 40.5562 11.2828C32.8571 4.45573 26.6153 2.92281 24.0648 4.39252C22.7658 5.13527 21.7994 7.01587 21.34 9.67083C20.8172 12.7367 20.9756 16.6559 21.8311 20.9702C23.3519 28.7296 26.9956 37.8482 32.1125 46.6664Z" fill="#00D8FF"/>
</svg>