<svg xmlns="http://www.w3.org/2000/svg" width="116" height="32" viewBox="0 0 116 32" fill="none">
  <g clip-path="url(#clip0_9812_27955)">
    <path d="M33.9469 22.4052C34.6586 22.7682 35.9239 23.2609 37.1364 23.235C38.2435 23.235 38.8235 22.6386 38.8235 21.9384C38.8235 21.2382 38.4017 20.7715 37.2155 20.0972C35.7394 19.2674 34.6322 18.1005 34.6322 16.5705C34.6322 13.8736 36.9782 11.9546 40.405 11.9546C41.9076 11.9546 43.0674 12.2399 43.7001 12.6029L42.8038 15.3258C42.0393 14.9886 41.2222 14.8071 40.3787 14.8071C39.2716 14.8071 38.5599 15.2998 38.5599 16.0778C38.5599 16.7002 39.0607 17.141 40.0623 17.6596C41.5912 18.5154 42.8565 19.6823 42.8565 21.342C42.8565 24.4019 40.326 26.1394 36.8202 26.1134C35.2122 26.0875 33.7096 25.6726 32.9716 25.154C32.9979 25.154 33.9469 22.4052 33.9469 22.4052ZM43.6473 26.0097L47.4431 6.50891H51.3444L49.8419 14.0551L49.8946 14.0032C50.949 12.7844 52.2934 11.9287 54.0331 11.9287C56.0629 11.9287 57.2227 13.2253 57.2227 15.3776C57.2227 16.0519 57.1172 17.1151 56.9327 17.9708L55.4038 25.9838H51.5026L52.9788 18.2042C53.0842 17.6856 53.1369 16.9854 53.1369 16.4668C53.1369 15.637 52.7943 15.0146 51.9244 15.0146C50.6854 15.0146 49.3411 16.6483 48.8403 19.1896L47.5486 25.9838L43.6473 26.0097ZM71.3516 17.2966C71.3516 22.0681 68.2412 26.1134 63.6282 26.1134C60.1223 26.1134 58.2507 23.7277 58.2507 20.7455C58.2507 16.1037 61.3613 11.9287 66.0533 11.9287C69.7173 11.9287 71.3516 14.5478 71.3516 17.2966ZM62.2574 20.6677C62.2574 22.0681 62.8111 23.1831 64.1553 23.1831C66.2114 23.1831 67.3713 19.5527 67.3713 17.1929C67.3713 16.0519 66.9232 14.8849 65.5261 14.8849C63.4173 14.859 62.2574 18.4635 62.2574 20.6677ZM70.429 31.4295L73.1441 17.3744C73.4605 15.7925 73.7767 13.7439 73.9349 12.2917H77.3881L77.1508 14.47H77.2035C78.258 13.0178 79.7869 12.0583 81.3421 12.0583C84.1889 12.0583 85.3487 14.3144 85.3487 16.8817C85.3487 21.5494 82.3437 26.1653 77.7571 26.1653C76.8082 26.1653 75.9119 26.0097 75.4638 25.6467H75.3847L74.304 31.4295H70.429ZM75.991 22.6645C76.4127 23.0016 76.8873 23.2091 77.5989 23.2091C79.7869 23.2091 81.2893 19.6823 81.2893 17.1929C81.2893 16.1556 80.9203 15.0664 79.7341 15.0664C78.3634 15.0664 77.0981 16.6483 76.65 19.06L75.991 22.6645ZM85.4806 26.0097L88.1166 12.2917H92.0442L89.3818 26.0097H85.4806ZM90.5417 10.8655C89.4346 10.8655 88.6964 9.93193 88.6964 8.79092C88.6964 7.54619 89.6982 6.48298 90.9371 6.48298C92.1232 6.48298 92.8877 7.3906 92.8877 8.50567C92.8614 9.93193 91.807 10.8395 90.5945 10.8395C90.5945 10.8655 90.5417 10.8655 90.5417 10.8655ZM92.7823 26.0097L94.8384 15.1702H93.0195L93.5731 12.2917H95.3919L95.4974 11.5916C95.8136 9.98379 96.4199 8.32415 97.7643 7.23501C98.8187 6.35332 100.189 5.93841 101.586 5.93841C102.536 5.93841 103.247 6.06807 103.696 6.27552L102.931 9.28363C102.536 9.15397 102.114 9.07618 101.692 9.07618C100.4 9.07618 99.6095 10.295 99.3723 11.6175L99.2404 12.3177H101.956L101.428 15.1961H98.7396L96.6836 26.0357L92.7823 26.0097ZM106.832 12.2917L107.464 18.4376C107.597 19.5267 107.703 20.5899 107.807 21.6791H107.86C108.177 20.953 108.466 19.8898 109.02 18.4117L111.393 12.2917H115.478L110.707 22.3274C109.02 25.7763 107.36 28.2917 105.593 29.9254C104.196 31.1961 102.562 31.8444 101.771 32L100.69 28.7326C101.349 28.4992 102.166 28.1621 102.905 27.6434C103.801 27.0211 104.565 26.1912 105.039 25.3355C105.145 25.128 105.172 24.9984 105.119 24.7391L102.773 12.2658C102.72 12.2917 106.832 12.2917 106.832 12.2917ZM19.6334 3.68233L18.6844 3.96758C18.579 3.5786 18.4209 3.21556 18.2364 2.85251C17.551 1.58185 16.5757 0.907618 15.3895 0.907618C15.3104 0.907618 15.2313 0.907611 15.1522 0.933543C15.1259 0.881679 15.0731 0.855747 15.0468 0.803883C14.5196 0.259313 13.8606 0 13.0698 0C11.5146 0.0518639 9.98568 1.141 8.74676 3.0859C7.87689 4.46029 7.19153 6.1718 7.00701 7.52026L3.97562 8.4538C3.07937 8.73905 3.05301 8.76499 2.94758 9.59481C2.8685 10.2172 0.522461 28.0324 0.522461 28.0324L19.9498 31.3258V3.6564C19.7916 3.6564 19.7125 3.6564 19.6334 3.68233ZM15.1522 5.05673L11.8836 6.06807C12.2 4.8752 12.8062 3.68233 13.5443 2.90437C13.8078 2.61912 14.2033 2.282 14.6514 2.10048C15.0731 2.98217 15.1522 4.20097 15.1522 5.05673ZM13.0434 1.03728C13.3597 1.01135 13.7024 1.11507 13.966 1.27066C13.5179 1.50405 13.1225 1.81523 12.7798 2.17828C11.8045 3.21556 11.0401 4.82333 10.7502 6.37925L8.03505 7.20907C8.58861 4.77147 10.6446 1.11507 13.0434 1.03728ZM10.0384 14.9368C10.1438 16.5705 14.4932 16.9076 14.7305 20.7196C14.915 23.7277 13.1225 25.7763 10.5129 25.9319C7.37605 26.1394 5.66266 24.3241 5.66266 24.3241L6.32165 21.5494C6.32165 21.5494 8.0614 22.846 9.43212 22.7423C10.3284 22.6904 10.6711 21.9643 10.6183 21.4457C10.4865 19.3193 6.95429 19.4489 6.71704 15.9741C6.53253 13.0438 8.48316 10.0616 12.8062 9.80227C14.4669 9.69854 15.3104 10.1135 15.3104 10.1135L14.335 13.7439C14.335 13.7439 13.228 13.2512 11.9363 13.329C10.0384 13.4587 10.012 14.6515 10.0384 14.9368ZM16.1803 4.74554C16.1803 3.96758 16.0749 2.90437 15.7057 1.97082C16.8656 2.17828 17.4456 3.50081 17.7092 4.27877C17.6827 4.27877 16.1803 4.74554 16.1803 4.74554ZM20.5033 31.2739L28.5694 29.3031C28.5694 29.3031 25.0899 6.22366 25.0899 6.06807C25.0636 5.93841 24.9581 5.83468 24.7999 5.80875C24.6945 5.80875 22.4276 5.75688 22.4276 5.75688C22.4276 5.75688 21.0569 4.43436 20.5297 3.94165V31.2739H20.5033Z" fill="#858FAD"/>
  </g>
  <defs>
    <clipPath id="clip0_9812_27955">
      <rect width="115" height="32" fill="white" transform="translate(0.5)"/>
    </clipPath>
  </defs>
</svg>