<svg xmlns="http://www.w3.org/2000/svg" width="49" height="48" viewBox="0 0 49 48" fill="none">
  <mask id="mask0_8437_36973" style="mask-type:luminance" maskUnits="userSpaceOnUse" x="0" y="9" width="49" height="30">
    <path d="M0.791016 9.33301H48.791V38.133H0.791016V9.33301Z" fill="white"/>
  </mask>
  <g mask="url(#mask0_8437_36973)">
    <path fill-rule="evenodd" clip-rule="evenodd" d="M24.791 9.33301C18.391 9.33301 14.391 12.533 12.791 18.933C15.191 15.733 17.991 14.533 21.191 15.333C23.0168 15.789 24.3217 17.1143 25.7661 18.5801C28.119 20.9686 30.8426 23.733 36.791 23.733C43.191 23.733 47.191 20.533 48.791 14.133C46.391 17.333 43.591 18.533 40.391 17.733C38.5652 17.277 37.2603 15.9517 35.8159 14.4859C33.463 12.0975 30.7395 9.33301 24.791 9.33301ZM12.791 23.733C6.39102 23.733 2.39102 26.933 0.791016 33.333C3.19102 30.133 5.99102 28.933 9.19102 29.733C11.0168 30.1899 12.3217 31.5143 13.7661 32.9801C16.119 35.3686 18.8426 38.133 24.791 38.133C31.191 38.133 35.191 34.933 36.791 28.533C34.391 31.733 31.591 32.933 28.391 32.133C26.5652 31.677 25.2603 30.3517 23.8159 28.8859C21.463 26.4975 18.7395 23.733 12.791 23.733Z" fill="#38BDF8"/>
  </g>
</svg>