<svg xmlns="http://www.w3.org/2000/svg" width="38" height="38" viewBox="0 0 38 38" fill="none">
  <g clip-path="url(#clip0_7421_56668)">
    <path d="M10.1947 36.9137L1.1875 1.09277L36.8125 11.0975" fill="white"/>
    <path d="M14.5938 21.5176L16.8441 30.4773" stroke="black" stroke-width="0.76" stroke-miterlimit="10"/>
    <path d="M23.4822 24.0351L14.5938 21.5176" stroke="black" stroke-width="0.76" stroke-miterlimit="10"/>
    <path d="M16.8438 30.4773L23.4819 24.0352" stroke="black" stroke-width="0.76" stroke-miterlimit="10"/>
    <path d="M16.8445 30.4775L7.95605 27.96" stroke="black" stroke-width="0.76" stroke-miterlimit="10"/>
    <path d="M7.95605 27.96L10.2064 36.9256L16.8445 30.4775" stroke="black" stroke-width="0.76" stroke-miterlimit="10"/>
    <path d="M7.95605 27.9598L14.5942 21.5176" stroke="black" stroke-width="0.76" stroke-miterlimit="10"/>
    <path d="M14.5938 21.5184L21.2378 15.0703" stroke="black" stroke-width="0.76" stroke-miterlimit="10"/>
    <path d="M21.2383 15.0701L27.8764 8.62793" stroke="black" stroke-width="0.76" stroke-miterlimit="10"/>
    <path d="M18.9873 6.11035L21.2376 15.07" stroke="black" stroke-width="0.76" stroke-miterlimit="10"/>
    <path d="M21.2381 15.0702L12.3438 12.5586" stroke="black" stroke-width="0.76" stroke-miterlimit="10"/>
    <path d="M12.3438 12.5586L14.5941 21.5183" stroke="black" stroke-width="0.76" stroke-miterlimit="10"/>
    <path d="M14.5935 21.5175L5.70508 19" stroke="black" stroke-width="0.76" stroke-miterlimit="10"/>
    <path d="M5.70508 19L7.95539 27.9597" stroke="black" stroke-width="0.76" stroke-miterlimit="10"/>
    <path d="M3.45508 10.041L5.70539 19.0007" stroke="black" stroke-width="0.76" stroke-miterlimit="10"/>
    <path d="M12.3435 12.5585L3.45508 10.041" stroke="black" stroke-width="0.76" stroke-miterlimit="10"/>
    <path d="M5.70508 19.0008L12.3432 12.5586" stroke="black" stroke-width="0.76" stroke-miterlimit="10"/>
    <path d="M12.3438 12.5525L18.9878 6.11035" stroke="black" stroke-width="0.76" stroke-miterlimit="10"/>
    <path d="M18.9881 6.11027L10.0938 3.59277" stroke="black" stroke-width="0.76" stroke-miterlimit="10"/>
    <path d="M10.0938 3.59277L12.3441 12.5525" stroke="black" stroke-width="0.76" stroke-miterlimit="10"/>
    <path d="M3.45539 10.0408L1.20508 1.0752L10.0935 3.5927" stroke="black" stroke-width="0.76" stroke-miterlimit="10"/>
    <path d="M3.45508 10.0409L10.0932 3.59277" stroke="black" stroke-width="0.76" stroke-miterlimit="10"/>
    <path d="M30.1263 17.5876L36.7644 11.1454L27.876 8.62793" stroke="black" stroke-width="0.76" stroke-miterlimit="10"/>
    <path d="M27.876 8.62793L30.1263 17.5876" stroke="black" stroke-width="0.76" stroke-miterlimit="10"/>
    <path d="M30.1267 17.5878L21.2383 15.0703" stroke="black" stroke-width="0.76" stroke-miterlimit="10"/>
    <path d="M21.2383 15.0703L23.4827 24.0359" stroke="black" stroke-width="0.76" stroke-miterlimit="10"/>
    <path d="M23.4824 24.035L30.1265 17.5869" stroke="black" stroke-width="0.76" stroke-miterlimit="10"/>
    <path d="M27.8757 8.62785L18.9873 6.11035" stroke="black" stroke-width="0.76" stroke-miterlimit="10"/>
  </g>
  <defs>
    <clipPath id="clip0_7421_56668">
      <rect width="38" height="38" fill="white"/>
    </clipPath>
  </defs>
</svg>