<svg xmlns="http://www.w3.org/2000/svg" width="18" height="13" viewBox="0 0 18 13" fill="none">
  <path d="M17.6237 2.03011C17.4163 1.2306 16.8072 0.602305 16.0323 0.388288C14.6291 1.16229e-07 9 0 9 0C9 0 3.37093 1.16229e-07 1.96773 0.388288C1.19279 0.602305 0.583802 1.2306 0.376359 2.03011C1.12658e-07 3.47777 0 6.5 0 6.5C0 6.5 1.12658e-07 9.52224 0.376359 10.9699C0.583802 11.7694 1.19279 12.3977 1.96773 12.6117C3.37093 13 9 13 9 13C9 13 14.6291 13 16.0323 12.6117C16.8072 12.3977 17.4163 11.7694 17.6237 10.9699C18.0001 9.52224 18.0001 6.5 18.0001 6.5C18.0001 6.5 17.9985 3.47777 17.6237 2.03011Z" fill="#D9DFF2"/>
  <path d="M7.19824 9.28539L11.8746 6.50014L7.19824 3.71484V9.28539Z" fill="#090B1D"/>
</svg>